<?xml version="1.0" encoding="utf-8"?>
<!-- Generator: Adobe Illustrator 26.5.0, SVG Export Plug-In . SVG Version: 6.00 Build 0)  -->
<svg version="1.1" id="Layer_1" xmlns="http://www.w3.org/2000/svg" xmlns:xlink="http://www.w3.org/1999/xlink" x="0px" y="0px"
	 viewBox="0 0 24 24" style="enable-background:new 0 0 24 24;" xml:space="preserve">
<style type="text/css">
	.st0{fill:#FFFF00;}
</style>
<path class="st0" d="M1,11.5c0,0.2,0,0.3,0,0.5c0,6.1,4.9,11,11,11c0.2,0,0.3,0,0.5,0c-0.2-0.5-0.3-0.9-0.4-1.4
	c-0.2-1.2-0.1-2.4,0.2-3.5s0.9-2.2,1.6-3.1c0.8-0.9,1.7-1.6,2.8-2.2c1.1-0.5,2.2-0.8,3.4-0.8c1,0,2,0.1,2.9,0.5c0-0.2,0-0.3,0-0.5
	c0-6.1-4.9-11-11-11c-0.2,0-0.3,0-0.5,0c0.5,1.3,0.6,2.7,0.4,4.1c-0.3,1.8-1.2,3.5-2.6,4.7s-3.1,2-4.9,2.1C3.2,12.1,2.1,11.9,1,11.5
	z M9.9,1.2C5.5,2.1,2.1,5.5,1.2,9.9c1,0.4,2,0.6,3,0.5c1.5-0.1,2.9-0.7,4-1.7s1.8-2.3,2.1-3.8C10.5,3.6,10.4,2.3,9.9,1.2L9.9,1.2z
	 M20.1,13.6c-1,0-1.9,0.2-2.8,0.6s-1.6,1-2.2,1.7s-1.1,1.6-1.3,2.5s-0.3,1.9-0.2,2.8c0.1,0.5,0.2,1,0.4,1.5c4.4-0.9,7.8-4.3,8.7-8.7
	C22,13.8,21.1,13.6,20.1,13.6L20.1,13.6z"/>
</svg>
