<?xml version="1.0" encoding="utf-8"?>
<!-- Generator: Adobe Illustrator 28.1.0, SVG Export Plug-In . SVG Version: 6.00 Build 0)  -->
<svg version="1.1" id="Layer_1" xmlns="http://www.w3.org/2000/svg" xmlns:xlink="http://www.w3.org/1999/xlink" x="0px" y="0px"
	 viewBox="0 0 36 36" style="enable-background:new 0 0 36 36;" xml:space="preserve">
<style type="text/css">
	.st0{fill:#FFEA00;}
</style>
<path class="st0" d="M9.7,1C7.34,0.98,5.11,1.76,3.43,3.43c-3.84,3.84-2.98,10.57,1.51,15.06c2,2,4.45,3.27,6.88,3.74c0,0,0,0,0,0
	c0.03,0,0.05,0.01,0.08,0.01c0.43,0.08,0.86,0.13,1.28,0.15c3.12,0.37,6.16,0.66,8.75,1.69l-0.05,0.05c-0.42,0.42-0.42,1.09,0,1.51
	l9.03,9.03c0.42,0.42,1.09,0.42,1.51,0l2.11-2.12c0.01-0.01,0.02-0.02,0.03-0.02c0.19-0.14,0.32-0.34,0.39-0.56
	c0,0,0-0.01,0.01-0.01c0.03-0.1,0.04-0.2,0.04-0.3c0-0.01,0-0.01,0-0.02c0-0.03,0-0.06-0.01-0.09v-0.01c0-0.03-0.01-0.06-0.02-0.09
	c0-0.01,0-0.01,0-0.02c0-0.01-0.01-0.03-0.01-0.04c-0.01-0.02-0.01-0.04-0.02-0.06c-0.01-0.03-0.02-0.06-0.03-0.09
	c0,0-0.01-0.01-0.01-0.01c-0.07-0.18-0.19-0.33-0.35-0.45l-8.91-8.91c-0.2-0.21-0.48-0.32-0.77-0.31c-0.28,0-0.54,0.12-0.74,0.31
	l-0.05,0.05c-1.03-2.59-1.32-5.63-1.69-8.75c-0.03-0.42-0.08-0.85-0.15-1.28c0-0.03-0.01-0.05-0.01-0.08c0-0.01-0.01-0.01-0.01-0.02
	c-0.46-2.43-1.74-4.88-3.73-6.87C15.96,2.42,12.73,1.04,9.7,1L9.7,1z M10.76,3.23c0.52,0.07,1.04,0.18,1.56,0.35l-0.61,0.61
	L10.76,3.23z M7.86,3.35l2.34,2.34L8.7,7.2L5.76,4.27C6.39,3.84,7.1,3.53,7.86,3.35L7.86,3.35z M14.42,4.5
	c0.61,0.35,1.2,0.75,1.77,1.23L14.72,7.2l-1.5-1.5L14.42,4.5z M4.26,5.77L7.19,8.7l-1.51,1.51L3.35,7.87
	C3.53,7.11,3.83,6.4,4.26,5.77L4.26,5.77z M11.71,7.2l1.5,1.5l-1.51,1.51l-1.5-1.5L11.71,7.2z M17.7,7.23
	c0.48,0.57,0.89,1.16,1.23,1.77l-1.2,1.2l-1.5-1.5L17.7,7.23z M8.7,10.21l1.5,1.5L8.7,13.22l-1.5-1.5L8.7,10.21z M14.72,10.21
	l1.5,1.5l-1.51,1.51l-1.5-1.5L14.72,10.21z M3.22,10.76l0.96,0.95l-0.61,0.61C3.41,11.8,3.29,11.28,3.22,10.76L3.22,10.76z
	 M19.85,11.11c0.16,0.5,0.27,1.01,0.34,1.51c0,0.02,0.01,0.04,0.01,0.06l-0.96-0.96L19.85,11.11z M11.72,13.22l1.5,1.5l-1.51,1.51
	l-1.5-1.5L11.72,13.22z M5.69,13.22l1.5,1.5L5.72,16.2c-0.48-0.57-0.89-1.16-1.23-1.77L5.69,13.22z M17.73,13.22l2.34,2.34
	c-0.18,0.76-0.49,1.47-0.92,2.09l-2.93-2.93L17.73,13.22z M14.73,16.23l2.93,2.93c-0.63,0.43-1.33,0.73-2.09,0.92l-2.34-2.34
	L14.73,16.23z M8.7,16.24l1.5,1.5L9,18.94c-0.61-0.35-1.2-0.75-1.77-1.23L8.7,16.24z M21.22,18.42c0.32,1.35,0.68,2.69,1.19,3.99
	c-1.3-0.5-2.64-0.87-3.99-1.19c0.56-0.34,1.09-0.74,1.58-1.23S20.89,18.99,21.22,18.42L21.22,18.42z M11.71,19.25l0.96,0.96
	c-0.02,0-0.04-0.01-0.06-0.01c-0.5-0.07-1-0.18-1.51-0.34L11.71,19.25z"/>
</svg>
